<svg id="Layer_1" data-name="Layer 1" xmlns="http://www.w3.org/2000/svg" viewBox="0 0 1670 1080"><defs><style>.cls-1{fill:#fff;}</style></defs><path class="cls-1" d="M828.52,160.38a3.9,3.9,0,0,0-3.89,3.9v67.37a3.89,3.89,0,0,0,3.89,3.89h12.61a3.89,3.89,0,0,0,3.89-3.89V164.28a3.9,3.9,0,0,0-3.89-3.9Z"/><path class="cls-1" d="M795.55,160.38a3.9,3.9,0,0,0-3.89,3.9v67.37a3.9,3.9,0,0,0,3.89,3.89h12.61a3.89,3.89,0,0,0,3.89-3.89V164.28a3.9,3.9,0,0,0-3.89-3.9Z"/><path class="cls-1" d="M746.55,312.58a233.33,233.33,0,0,1,30.67-38.24l.41-.52-.21.12,0,0C720.77,298.54,672.11,346.86,638.06,410c-1.68,2.8-3.38,5.54-5,8.45a313.65,313.65,0,0,0-16.26,34.41c-16.72,41.14-24,82.21-27,112.74-.65,5.31-1.23,10.65-1.7,16,0,.27-.08.81-.08.81h.42v.06l74.7.23,12,0-.2-1c.06-2.62.24-10.3.41-15-.24,6.64-.44-19.73,3-53.12C686.62,433.27,711,368.21,746.55,312.58Z"/><path class="cls-1" d="M769.87,154.9H899.48a2.16,2.16,0,0,0,2.15-2.16v-5a2.16,2.16,0,0,0-2.15-2.16H769.87a2.16,2.16,0,0,0-2.15,2.16v5A2.16,2.16,0,0,0,769.87,154.9Z"/><rect class="cls-1" x="767.72" y="243.46" width="133.92" height="9.28" rx="2.16"/><path class="cls-1" d="M1081.94,581.48c-.47-5.39-1-10.72-1.7-16-3-30.53-10.31-71.59-27-112.72a311.58,311.58,0,0,0-16.26-34.4c-1.56-2.8-3.21-5.43-4.82-8.14-34.06-63.28-82.79-111.69-139.56-136.35h0l-.19-.12.4.53a233.23,233.23,0,0,1,30.68,38.23c35.54,55.61,59.93,120.66,68.25,201,3.46,33.38,3.26,59.75,3,53.09.17,4.72.35,12.39.41,15l-.2,1,11.91,0,74.75-.22v-.06h.41S1082,581.75,1081.94,581.48Z"/><path class="cls-1" d="M958.21,274.64c4.25,3.13,9.12,6.86,14.49,11.28a356.87,356.87,0,0,1,32.19,30.67c30.77,32.49,47.83,63.32,64.59,96.25,9.29,18.27,15.29,35.25,20.61,50.38a399.46,399.46,0,0,1,14.81,52.9c6.25,31.26,9.42,66.3,9.42,66.3h48s0-.32-.09-.78l1.86.71s0-.24,0-.37c-5.26-144.69-96.29-267.48-223.71-319l-.48-.19a123.28,123.28,0,0,1,10.59,6.46C952.81,270.9,955.45,272.73,958.21,274.64Z"/><path class="cls-1" d="M885,138.77c-.22-28.4-22.14-51.38-49.29-51.85V78.5h13.62V77s0,0,0,0V72a.47.47,0,0,0-.47-.46h-2a.46.46,0,0,0-.46.46V76.9H835.67V57.54H836a.59.59,0,0,0,.59-.59V51.59A.58.58,0,0,0,836,51h-2.36a.59.59,0,0,0-.59.59V57a.6.6,0,0,0,.59.59h.34V76.9H823.08V72a.47.47,0,0,0-.47-.46h-2a.47.47,0,0,0-.46.46v5s0,0,0,0V78.5h13.77v8.42c-27.21.5-49.14,23.58-49.26,52.07v.23H885Z"/><path class="cls-1" d="M853.14,281l-1.38-1.18,0,302.63,111,.39s0-3.13,0-4.71C962.77,449.05,918.31,337,853.14,281Z"/><path class="cls-1" d="M861.29,160.38a3.89,3.89,0,0,0-3.88,3.9v67.37a3.89,3.89,0,0,0,3.88,3.89h12.62a3.89,3.89,0,0,0,3.88-3.89V164.28a3.89,3.89,0,0,0-3.88-3.9Z"/><rect class="cls-1" x="816.35" y="628.76" width="37.12" height="37.12" rx="3.88"/><path class="cls-1" d="M993.36,665.88a3.89,3.89,0,0,0,3.89-3.88V632.68a3.9,3.9,0,0,0-3.89-3.89H964a3.89,3.89,0,0,0-3.89,3.89V662a3.88,3.88,0,0,0,3.89,3.88Z"/><path class="cls-1" d="M818.26,582.57l0-302.71L816.86,281c-65.16,56.1-109.62,168.15-109.62,297.21,0,1.58,0,4.71,0,4.71Z"/><path class="cls-1" d="M1181.14,607.09h-1.63l-.1,0h-63.56V596a3.26,3.26,0,0,0-3.27-3.25H1082a3.25,3.25,0,0,0-3.25,3.25v11H997.27V596a3.24,3.24,0,0,0-3.25-3.25h-30.6a3.24,3.24,0,0,0-3.25,3.25v11H853.45V596a3.26,3.26,0,0,0-3.26-3.26H819.58a3.26,3.26,0,0,0-3.26,3.26v11.1H709.67V596a3.26,3.26,0,0,0-3.25-3.26H675.81a3.27,3.27,0,0,0-3.27,3.26v11.1H591.06V596a3.26,3.26,0,0,0-3.26-3.26H557.2a3.26,3.26,0,0,0-3.26,3.26v11.1H490.66l-.1,0h-1.7a2.16,2.16,0,0,0-2.16,2.16v5.83a2.17,2.17,0,0,0,2.16,2.17h692.28a2.17,2.17,0,0,0,2.16-2.17v-5.83A2.16,2.16,0,0,0,1181.14,607.09Z"/><path class="cls-1" d="M1111.93,665.88a3.89,3.89,0,0,0,3.89-3.88V632.68a3.89,3.89,0,0,0-3.89-3.89h-29.34a3.89,3.89,0,0,0-3.88,3.89V662a3.88,3.88,0,0,0,3.88,3.88Z"/><rect class="cls-1" x="672.57" y="628.76" width="37.12" height="37.12" rx="3.88"/><path class="cls-1" d="M1179.4,674.6H490.59a3.9,3.9,0,0,0-3.89,3.9v16.28a3.89,3.89,0,0,0,3.89,3.9H1179.4a3.9,3.9,0,0,0,3.9-3.9V678.5A3.91,3.91,0,0,0,1179.4,674.6Z"/><path class="cls-1" d="M507.71,582.59h18l16.93.06,0-.06h13s3.17-35.05,9.42-66.32a400.2,400.2,0,0,1,14.81-52.92c5.32-15.13,11.32-32.12,20.61-50.38,16.76-33,33.82-63.78,64.58-96.28A355.46,355.46,0,0,1,697.3,286c5.28-4.35,10.08-8,14.29-11.15,2.83-2,5.55-3.83,8-5.48a120.29,120.29,0,0,1,10.59-6.47l-.48.2C602.24,314.6,511.21,437.42,506,582.16c0,.12,0,.36,0,.36h1.78Z"/><path class="cls-1" d="M587.2,665.87a3.89,3.89,0,0,0,3.89-3.88V632.64a3.88,3.88,0,0,0-3.89-3.88H557.85a3.89,3.89,0,0,0-3.89,3.88V662a3.89,3.89,0,0,0,3.89,3.88Z"/><path class="cls-1" d="M485.79,785.87v-.14c0-12.74,9.37-24,23.31-24,7.84,0,12.69,2.26,17.35,6.18l-3.4,4a19.77,19.77,0,0,0-14.14-5.32c-10.3,0-17.67,8.7-17.67,19.06v.13c0,11.09,7.11,19.33,18.39,19.33a21.81,21.81,0,0,0,13.42-4.65V788.85H508.91v-4.71H528.1v18.53a28.18,28.18,0,0,1-18.66,7.12c-14.61,0-23.65-10.64-23.65-23.92"/><path class="cls-1" d="M587.41,785.87v-.14c0-10.56-7.71-19.19-18.33-19.19s-18.2,8.5-18.2,19.06v.13c0,10.57,7.71,19.21,18.33,19.21s18.2-8.51,18.2-19.07m-42,0v-.14c0-12.82,9.63-24,23.78-24s23.65,11.09,23.65,23.91c.07.07.07.07,0,.13,0,12.82-9.63,24.06-23.78,24.06s-23.65-11.1-23.65-23.92"/><path class="cls-1" d="M632.3,804.26c7.05,0,11.43-3.12,11.43-8.29v-.14c0-5.05-4.25-8-12.35-8H616.7v16.4Zm-1.86-21c6.32,0,10.7-2.85,10.7-8.3v-.13c0-4.58-3.65-7.57-10.29-7.57H616.7v16Zm-18.92-20.72h19.79c5.32,0,9.49,1.52,12.16,4.12a10.35,10.35,0,0,1,3,7.44v.13c0,6.05-3.73,9.17-7.37,10.76,5.51,1.66,10,4.84,10,11.23v.13c0,8-6.71,12.69-16.88,12.69H611.52Z"/><rect class="cls-1" x="667.51" y="762.49" width="5.26" height="46.5"/><polygon class="cls-1" points="693.93 762.49 727.54 762.49 727.54 767.27 699.18 767.27 699.18 783.15 724.55 783.15 724.55 787.93 699.18 787.93 699.18 804.2 727.88 804.2 727.88 808.99 693.93 808.99 693.93 762.49"/><path class="cls-1" d="M765.53,786.21c7,0,12-3.59,12-9.57v-.14c0-5.7-4.38-9.16-11.88-9.16H751.25v18.87ZM746,762.49h20c5.72,0,10.29,1.73,13.22,4.65a12.88,12.88,0,0,1,3.59,9.17v.13c0,7.7-5.32,12.22-12.63,13.55l14.28,19H778l-13.48-18.08H751.25V809H746Z"/><polygon class="cls-1" points="801.59 762.49 806.51 762.49 835.8 799.75 835.8 762.49 840.91 762.49 840.91 808.99 836.74 808.99 806.71 770.86 806.71 808.99 801.59 808.99 801.59 762.49"/><path class="cls-1" d="M901.55,785.87v-.14c0-10.56-7.71-19.19-18.33-19.19S865,775,865,785.6v.13c0,10.57,7.7,19.21,18.33,19.21s18.2-8.51,18.2-19.07m-42,0v-.14c0-12.82,9.63-24,23.78-24S907,772.78,907,785.6c.07.07.07.07,0,.13,0,12.82-9.64,24.06-23.78,24.06s-23.65-11.1-23.65-23.92"/><path class="cls-1" d="M969.29,804.14c11.75,0,19.26-8,19.26-18.27v-.13c0-10.3-7.51-18.4-19.26-18.4h-10.9v36.8Zm-16.14-41.65h16.14c14.61,0,24.7,10,24.7,23.11v.14c0,13.08-10.09,23.25-24.7,23.25H953.15Z"/><polygon class="cls-1" points="1012.65 762.49 1046.26 762.49 1046.26 767.27 1017.9 767.27 1017.9 783.15 1043.27 783.15 1043.27 787.93 1017.9 787.93 1017.9 804.2 1046.6 804.2 1046.6 808.99 1012.65 808.99 1012.65 762.49"/><polygon class="cls-1" points="1092.22 762.49 1097.46 762.49 1097.46 804.14 1123.63 804.14 1123.63 808.99 1092.22 808.99 1092.22 762.49"/><path class="cls-1" d="M1171.06,792l-10.57-23.7L1149.87,792Zm-13-29.81H1163l21.2,46.82h-5.65l-5.44-12.28h-25.31L1142.3,809h-5.38Z"/><path class="cls-1" d="M121.8,868.86c0-10.26-6.52-15.34-15.06-15.34-5.65,0-7.47,2.3-7.47,7.66v19.76H102c14.3,0,19.76-2.48,19.76-12.08m28.09,47.37c-6,2-14.38,1.73-20.13-5.66l-14.77-19c-4.12-5.38-9-6.14-15.72-6.24V904c0,6.71,4.59,7.86,10.73,8.63.67.1.2,3.26-.58,3.26h-29c-.76,0-1.33-3.16-.57-3.26,4.89-.68,8-2.59,8-8.63V861.18c0-6.32-3.35-8.14-8-9.39-.76-.19-.28-3.35.57-3.26a89.43,89.43,0,0,0,11,.58c7.1,0,13.71-.58,18.32-.58,14.47,0,24.16,6,24.16,17.75,0,11.12-9,16.59-17.07,17.07v.47c3.84,0,6.62,1.63,10.84,6.91l14.28,17.93c3,3.73,5.85,4.8,8,4.8.78,0,.58,2.58,0,2.77"/><path class="cls-1" d="M165.37,912.59c5.56-1.44,9.88-2.31,9.88-9.4V860.61c0-6.13-3.93-7.76-8.06-8.81-.76-.2-.28-3.37.48-3.27,7,.77,19.08.57,24.94.57,8.72,0,15-.37,22.91-.57,2.31,0,2.31,1.54,1.82,3.75l-2.3,9.11c-.28,1.34-2.68,1.34-3.07,0-1.43-4.71-4.31-7.4-16.29-7.4-6.72,0-8.93,1.73-8.93,6.72v15.63c0,2.5,1.25,3,3.17,3H192c7.76,0,14.47-.77,18.41-4.32,1-.87,3.07-.67,2.2,1.25l-5.47,12.07c-.76,1.73-2.19,1.54-3.25.1-2.2-3.06-7.09-4.31-12.66-4.31h-1.34c-1.92,0-3.17.48-3.17,3v16.12c0,5.47,2.31,7.48,10.27,7.48,14.47,0,20.23-6.62,22.53-10.26.67-1.06,3.26-.58,3.26,1.05,0,4.89-4.12,14.58-10.17,14.58-5.36-.29-10.64-.57-18.69-.57-8.83,0-19.28-.3-28,.57-.95.1-1.34-3.26-.57-3.45"/><path class="cls-1" d="M261.1,861.18v24.27c16.3,2.31,24.84-1.63,24.84-14.19,0-11.42-7.29-17.74-17.16-17.74-6,0-7.68,2.11-7.68,7.66m0,29V904c0,6.71,4.61,7.86,10.75,8.63.66.1.18,3.26-.58,3.26H242.21c-.77,0-1.34-3.16-.58-3.26,4.89-.68,8-2.59,8-8.63V861.18c0-6.32-3.35-8.14-8-9.39-.76-.19-.28-3.35.58-3.26a89.53,89.53,0,0,0,11,.58c7.1,0,13.05-.58,17.93-.58,14.87,0,27.14,5.47,27.14,20.52,0,17.07-16,24.27-37.21,21.1"/><path class="cls-1" d="M353.57,824.84c1.73-2.48,9.78,4.9,7.49,6.62L348.49,841c-1.25,1-4.6-2.1-3.64-3.44Zm-28.19,65.89V860.62c0-6-3.07-8.06-7.76-8.64-.77-.09-.2-3.25.57-3.25h26.18c.77,0,1.34,3.16.57,3.25-3.83.48-7.66,1.93-7.66,8.64V891.2c0,13.42,7.75,19.67,17.92,19.67,10.45,0,18.8-6.25,18.8-19.67V860.62c0-6.24-3.55-8-8.25-8.64-.67-.09-.19-3.25.57-3.25H387.9c.67,0,1.24,3.16.48,3.25-3.83.48-7.66,1.93-7.66,8.64v30c0,17.64-11.42,26.75-26.67,26.75-13.52,0-28.67-7.19-28.67-26.65"/><path class="cls-1" d="M452.86,898.59c0-10.55-7-16.11-15.92-16.11h-9.88v20.71c0,5.28,2.69,7.87,11,7.87s14.77-2.5,14.77-12.47m-25.8-38v17.07h9.88c6.91,0,10.93-3.44,10.93-10.83,0-9.11-6.14-13.33-14-13.33-5.09,0-6.82,1.73-6.82,7.09m38.17,35.87c0,11.89-10.84,19.56-26.85,19.56-4.61,0-10-.57-17.07-.57a139.18,139.18,0,0,0-15.06.57c-.86.1-1.34-3.26-.56-3.45,5.55-1.44,9.87-2.31,9.87-9.4V860.61c0-6.14-3.94-7.76-8.06-8.82-.77-.19-.29-3.35.48-3.26a100.48,100.48,0,0,0,11.6.58c7.68,0,13.33-.58,17.55-.58,12.37,0,22.54,5.18,22.63,15.72.1,7.78-5.37,13.15-12.08,14.49v.58c8.92,0,17.55,6.41,17.55,17.16"/><path class="cls-1" d="M483.58,912.59c5.56-1.44,9.88-2.31,9.88-9.4V860.61c0-6.71-3.93-8.05-8.06-8.63-.76-.09-.2-3.25.48-3.25h26.47c.67,0,1.15,3.16.48,3.25-4,.48-7.87,1.92-7.87,8.63v42.58c0,5.47,2.3,7.48,10.26,7.48,14.48,0,20.23-6.62,22.53-10.26.67-1.06,3.27-.58,3.27,1.05,0,4.89-4.13,14.58-10.17,14.58-5.37-.29-10.64-.57-18.7-.57-8.82,0-19.27-.3-28,.57-1,.1-1.34-3.26-.57-3.45"/><path class="cls-1" d="M557.93,912.59c4.88-.67,8-2.59,8-8.63V860.61c0-6-3.08-8-8-8.63-.77-.09-.2-3.25.57-3.25h26.27c.78,0,1.35,3.16.58,3.25-4.12.58-8,1.92-8,8.63V904c0,6.71,3.84,8,8,8.63.77.09.2,3.25-.58,3.25H558.5c-.77,0-1.34-3.16-.57-3.25"/><path class="cls-1" d="M605.6,883.53c0-16.59,10.17-36.34,37-36.34,11.12,0,20.7,3.45,19.56,6.81l-1.26,3.74c-3.44,10.26-7.18-2.88-24.25-2.88-13.71,0-20.42,8.92-20.42,22.73,0,21.58,16.39,30.59,29.53,30.59,1.73,0,10.45-1.35,15.44-4.51.76-.48,2.77,1.73,2.21,2.59-4.13,6-17,11.12-19.95,11.12-16.11,0-37.88-9.4-37.88-33.85"/><path class="cls-1" d="M724.25,890.63,713,863.78l-11.32,26.85c-.58,1.35.86,1.53,2.2,1.53H722c1.35,0,2.79-.18,2.21-1.53M751,915.85H725.69c-1.25,0-1.34-3.07-.29-3.25,3.55-.69,7.39-1.94,3.84-10.18L728.18,900c-.95-2.31-2.59-2.5-5.47-2.5H703.16c-2.88,0-4.51.19-5.47,2.5l-1,2.39c-3.35,8.24.29,9.49,4.89,10.18,1.25.18,1,3.25-.28,3.25H680.62c-1.15,0-1.44-3.07-.29-3.25,3.94-.69,6.23-2,9.78-10.18l16.21-37.2c3.74-8.45,4.89-12.37,4.89-16,0-.57,6.72-2.1,7-1.43l23.39,54.56c3.46,8.15,5.76,9.68,9.6,10.27,1.34.18,1,3.25-.19,3.25"/><path class="cls-1" d="M855.09,886.31c0-18.31-10-32.69-27.23-32.69-6.81,0-9,2.1-9,7v42.58c0,5.18,3.54,7.76,12.85,7.76,15.63,0,23.39-8.42,23.39-24.64m-57.62,26.28c5.56-1.44,9.87-2.31,9.87-9.4V860.61c0-6.13-3.93-7.76-8.05-8.81-.78-.2-.29-3.37.48-3.27a99.11,99.11,0,0,0,12,.57c7.48,0,14.19-.57,19.08-.57,23.21,0,35.78,13.81,35.78,32.31S854,916,830.74,916c-4.6,0-10.55-.57-17.65-.57A140.07,140.07,0,0,0,798,916c-1,.1-1.35-3.26-.57-3.45"/><path class="cls-1" d="M945.45,887.18c0-19.37-13.13-33.47-26.94-33.47-8.44,0-19.56,5.57-19.56,23.59,0,19.56,13.14,33.57,26.85,33.57,8.44,0,19.65-5.57,19.65-23.69m-58-4.51c0-19.37,13.82-35.48,34.81-35.48,20,0,34.62,14.67,34.62,34.62,0,19.46-13.72,35.57-34.81,35.57-19.95,0-34.62-14.77-34.62-34.71"/><path class="cls-1" d="M1061.25,915.85h-25c-.67,0-1.15-3.16-.58-3.25,4-.69,7-2.6,6.71-8.65l-1.82-32.21L1025,903.39a53.32,53.32,0,0,0-3.83,9.87c-.19,1.16-2.2,1.72-3.74,1.72a3,3,0,0,1-3-1.72l-22.15-42L990.86,904c-.29,6.71,3.65,8.26,6.71,8.65.77.09.19,3.25-.48,3.25H977.25c-.78,0-1.35-3.16-.57-3.25,4.11-.49,7.57-1.94,8-8.65l3.07-55c.09-1.63,3.74-1.73,4.69,0l27.82,52,25.79-52c.86-1.73,4.69-1.63,4.8,0l3.07,55c.37,6.71,3.83,8.16,7.85,8.65.77.09.2,3.25-.47,3.25"/><path class="cls-1" d="M1081,912.59c4.89-.67,8-2.59,8-8.63V860.61c0-6-3.07-8-8-8.63-.78-.09-.2-3.25.57-3.25h26.27c.78,0,1.35,3.16.57,3.25-4.11.58-7.95,1.92-7.95,8.63V904c0,6.71,3.84,8,7.95,8.63.78.09.21,3.25-.57,3.25h-26.27c-.77,0-1.35-3.16-.57-3.25"/><path class="cls-1" d="M1187.21,915l-45.65-47.74v36.43c0,6.52,3.84,7.57,9.31,8.93.77.18.38,3.25-.58,3.25h-22.72c-.78,0-1.35-3-.48-3.25,4-1.36,7.86-2.12,7.86-8.93V866.46c0-6.8-1.06-10.06-3.55-13.42-.87-1.15-1.73-1.92-1.73-2.2a2,2,0,0,1,1.92-2.12h7.1a2.62,2.62,0,0,1,2.29.87l44.69,47.28V860.8c0-6.8-4.32-7.57-9.3-8.81-.77-.2-.38-3.27.57-3.27h22.73c.77,0,1.25,3.07.48,3.27-4.22,1.24-7.86,2-7.86,8.81v37.31c0,6.33.19,13.33,1.15,16.87.39,1.44-1.15,1.82-2.68,1.82a4.33,4.33,0,0,1-3.55-1.82"/><path class="cls-1" d="M1219.38,912.59c4.89-.67,8-2.59,8-8.63V860.61c0-6-3.07-8-8-8.63-.78-.09-.2-3.25.57-3.25h26.28c.77,0,1.34,3.16.56,3.25-4.11.58-8,1.92-8,8.63V904c0,6.71,3.84,8,8,8.63.78.09.21,3.25-.56,3.25H1220c-.77,0-1.35-3.16-.57-3.25"/><path class="cls-1" d="M1267.05,883.53c0-16.59,10.16-36.34,37-36.34,11.12,0,20.72,3.45,19.56,6.81l-1.25,3.74c-3.45,10.26-7.19-2.88-24.26-2.88-13.71,0-20.42,8.92-20.42,22.73,0,21.58,16.4,30.59,29.53,30.59,1.73,0,10.46-1.35,15.45-4.51.77-.48,2.77,1.73,2.2,2.59-4.13,6-17,11.12-19.94,11.12-16.12,0-37.88-9.4-37.88-33.85"/><path class="cls-1" d="M1385.69,890.63l-11.22-26.85-11.31,26.85c-.58,1.35.86,1.53,2.2,1.53h18.12c1.34,0,2.79-.18,2.21-1.53m26.75,25.22h-25.31c-1.25,0-1.34-3.07-.28-3.25,3.54-.69,7.38-1.94,3.83-10.18l-1.06-2.39c-.95-2.31-2.59-2.5-5.46-2.5h-19.57c-2.86,0-4.5.19-5.46,2.5l-1,2.39c-3.37,8.24.28,9.49,4.89,10.18,1.24.18,1,3.25-.3,3.25h-20.71c-1.15,0-1.44-3.07-.29-3.25,3.93-.69,6.23-2,9.79-10.18l16.19-37.2c3.76-8.45,4.9-12.37,4.9-16,0-.57,6.71-2.1,7-1.43l23.39,54.56c3.46,8.15,5.75,9.68,9.59,10.27,1.34.18.95,3.25-.2,3.25"/><path class="cls-1" d="M1490.54,915l-45.65-47.74v36.43c0,6.52,3.84,7.57,9.31,8.93.76.18.38,3.25-.58,3.25H1430.9c-.78,0-1.35-3-.48-3.25,4-1.36,7.86-2.12,7.86-8.93V866.46c0-6.8-1.06-10.06-3.55-13.42-.87-1.15-1.73-1.92-1.73-2.2a2,2,0,0,1,1.92-2.12h7.1a2.62,2.62,0,0,1,2.29.87L1489,896.87V860.8c0-6.8-4.32-7.57-9.3-8.81-.77-.2-.38-3.27.57-3.27H1503c.77,0,1.25,3.07.48,3.27-4.22,1.24-7.86,2-7.86,8.81v37.31c0,6.33.19,13.33,1.15,16.87.39,1.44-1.15,1.82-2.68,1.82a4.33,4.33,0,0,1-3.55-1.82"/><path class="cls-1" d="M1562.78,890.63l-11.21-26.85-11.32,26.85c-.56,1.35.87,1.53,2.21,1.53h18.12c1.34,0,2.78-.18,2.2-1.53m26.76,25.22h-25.31c-1.24,0-1.35-3.07-.29-3.25,3.55-.69,7.38-1.94,3.83-10.18l-1-2.39c-1-2.31-2.6-2.5-5.46-2.5h-19.57c-2.87,0-4.51.19-5.46,2.5l-1,2.39c-3.36,8.24.29,9.49,4.89,10.18,1.24.18,1,3.25-.29,3.25h-20.71c-1.15,0-1.43-3.07-.29-3.25,3.93-.69,6.23-2,9.79-10.18l16.19-37.2c3.75-8.45,4.9-12.37,4.9-16,0-.57,6.71-2.1,7-1.43l23.4,54.56c3.45,8.15,5.75,9.68,9.58,10.27,1.34.18,1,3.25-.19,3.25"/><rect class="cls-1" x="485.68" y="997.59" width="698.64" height="31.41"/></svg>